<svg width="41" height="32" viewBox="0 0 41 32" fill="none" xmlns="http://www.w3.org/2000/svg">
<path d="M15.4199 0.375977V2.81836C11.9251 4.64518 9.42318 6.55143 7.91406 8.53711C6.40495 10.5228 5.65039 12.6872 5.65039 15.0303C5.65039 16.4202 5.84896 17.3734 6.24609 17.8896C6.60352 18.4456 7.04036 18.7236 7.55664 18.7236C8.07292 18.7236 8.7679 18.5846 9.6416 18.3066C10.5153 17.9889 11.3096 17.8301 12.0244 17.8301C13.6527 17.8301 15.0625 18.4456 16.2539 19.6768C17.485 20.8682 18.1006 22.3376 18.1006 24.085C18.1006 25.9912 17.3659 27.6393 15.8965 29.0293C14.4271 30.3796 12.6003 31.0547 10.416 31.0547C7.75521 31.0547 5.35254 29.903 3.20801 27.5996C1.06348 25.2962 -0.00878906 22.4567 -0.00878906 19.0811C-0.00878906 15.1097 1.30176 11.4163 3.92285 8.00098C6.58366 4.5459 10.416 2.00423 15.4199 0.375977ZM37.835 0.554688V2.81836C33.8239 5.12175 31.1829 7.18685 29.9121 9.01367C28.6413 10.8405 28.0059 12.985 28.0059 15.4473C28.0059 16.5592 28.2243 17.3932 28.6611 17.9492C29.098 18.5052 29.5547 18.7832 30.0312 18.7832C30.4681 18.7832 31.1234 18.6243 31.9971 18.3066C32.8708 17.9889 33.7445 17.8301 34.6182 17.8301C36.2464 17.8301 37.6562 18.4258 38.8477 19.6172C40.0788 20.7689 40.6943 22.1986 40.6943 23.9062C40.6943 25.8522 39.9199 27.54 38.3711 28.9697C36.862 30.3994 34.9954 31.1143 32.7715 31.1143C30.1504 31.1143 27.7874 29.9824 25.6826 27.7188C23.5778 25.4551 22.5254 22.6354 22.5254 19.2598C22.5254 15.0898 23.8558 11.2972 26.5166 7.88184C29.1774 4.42676 32.9502 1.98438 37.835 0.554688Z" fill="#0050DD"/>
</svg>
