<svg fill="none" height="36" viewBox="0 0 38 36" width="38" xmlns="http://www.w3.org/2000/svg"><g stroke="#0050dd" stroke-linecap="round" stroke-linejoin="round" stroke-miterlimit="10" stroke-width="2"><path d="m17.5 34.6872 1.4216-7.5731s.4822-1.0493-.2032-2.3418c-.6853-1.2923-.7184-3.2723.7816-3.7723s1.9732.6419 2.5351.7861c.5617.1441 1.4014-.096 1.9649.2139.8228.4525 1.0472 1.0701 1 1.5-.0922.8395-.5 1-1.3387 1.7355-1.0412.8921-1.4721 1.994-1.7685 3.744-.2965 1.75-.7982 5.3224-.8569 5.7077"/><path d="m1 10.7639s2.8047 4.6323 11.1903 7.6415c0 0 1.5027.6981.8735 1.8233-.8799 1.5738-1.065 4.0331-.8735 5.5581.1914 1.5248-.2093 5.8133-1.4938 8.6009"/><path d="m33.3271 13.9652 3.2817-.9683"/><path d="m10.4537 1 14.4178 8.82275s5.0973 3.17725 4.3037 9.19935c-.9145 6.9399-3.443 15.9779-3.443 15.9779"/><path d="m30.5203 10.1899 2.8512-2.36715"/><path d="m33.3811 18.386 3.3354.3229"/><path d="m7.12924 5.89429s9.66216 6.43271 11.31876 6.01921 3.552.0865 3.552 1.5865c0 1.2156 0 1.5-.8661 2.5108-.6557.5926-.6841 1.1858-1.0293 1.8097-.345.6239-1.7055 1.0515-3.0339-.0861-1.3283-1.1375.2902-1.9468-.8177-2.78-1.1081-.833-10.46064-6.38612-10.46064-6.38612"/></g></svg>