<svg fill="none" height="37" viewBox="0 0 28 37" width="28" xmlns="http://www.w3.org/2000/svg"><path d="m23.4369 2.04541c1.6863 1.41326 3.1607 4.03175 3.3507 6.18906m-25.15747 16.77173c.75817 2.8762 2.65359 5.1507 5.36996 6.4938m1.52559-7.6348c0-3.9757 1.13058-5.3217 4.61482-8.4483 1.6951-1.5212 3.275-2.4849 4.0035-4.6184.3606-2.27656-.3267-3.39381-1.6559-5.22357-.3147-.43307-1.4806-1.56725-1.6417-2.03297-.2538-.73447.8178-1.49655.8178-1.49655s1.2543-1.04037 3.2421 1.44441c2.2786 2.53914 4.0938 5.51018 2.4848 9.44218-.5489 1.3415-1.323 2.822-1.1382 3.5326.8489 2.0145 2.0198 3.8323 2.6291 5.9097.6649 2.2672.7969 2.8125 1.1181 6.6257s.4368 6.4656-1.5806 6.4656c-2.0175 0-2.264-4.129-2.5192-7.2313.0529-.6836 0-1.8844-.3442-2.1452-.0015-.0173-.0722-.2091-.1945-.0202-.3715.5735-.874 1.8454-1.0297 2.1654-1.1511 2.3676-2.0527 4.9615-3.9918 7.2857-.5841.7001-1.9439.1047-2.0965-.7217-.3456-1.871 3.2097-7.4612 3.681-10.4362.1551-.979-.0413-2.6697-.3956-3.5939-.4342-1.1321-.5677-1.3757-.5677-1.3757-.5276 0-2.4716 1.3757-2.6714 5.0677-.1248 2.3071-2.76422.874-2.76422-.595zm-.11487-13.8515c0-1.50114 1.21688-2.7179 2.71789-2.7179 1.501 0 2.7177 1.21676 2.7177 2.7179 0 1.501-1.2167 2.7177-2.7177 2.7177-1.50101 0-2.71789-1.2167-2.71789-2.7177z" stroke="#0050dd" stroke-linecap="round" stroke-linejoin="round" stroke-miterlimit="10" stroke-width="2"/></svg>