<svg fill="none" height="68" viewBox="0 0 67 68" width="67" xmlns="http://www.w3.org/2000/svg"><g stroke="#0050dd" stroke-linejoin="round" stroke-miterlimit="10" stroke-width="2"><path d="m6.00329 44.278c-3.526-.162-4.90202 3.932-4.70102 6.651.259 3.511.30102 9.612 11.11103 14.109 10.81 4.496 17.219-5.74 19.324-9.184s25.734-47.54502 25.734-47.54502 2.774-4.49598.574-6.50498c-2.201-2.008999-4.592-.00002-6.314 3.25198-1.722 3.253-29.656 47.45002-29.656 47.45002s-1.827 5.014-7.622 2.395c-6.54503-2.959.645-10.204-8.45001-10.623z"/><path d="m41.2852 22.209 6.713 3.647"/><path d="m60.9958 44.278c3.526-.162 4.902 3.932 4.701 6.651-.259 3.511-.301 9.612-11.111 14.109-10.81 4.496-17.219-5.74-19.324-9.184s-25.734-47.54502-25.734-47.54502-2.774-4.49598-.574-6.50498c2.201-2.008999 4.592-.00002 6.314 3.25198 1.722 3.253 29.656 47.45002 29.656 47.45002s1.827 5.014 7.622 2.395c6.545-2.959-.645-10.204 8.45-10.623z"/><path d="m25.714 22.209-6.713 3.647"/><path d="m24.0078 9.86401c0-4.895 3.968-8.86401 8.863-8.86401s8.864 3.96901 8.864 8.86401c0 4.89499-3.969 8.86299-8.864 8.86299s-8.863-3.968-8.863-8.86299z"/><path d="m33.3111 5.63501c-1.474-.307-5.22.827-4.859 4.85799" stroke-linecap="round"/></g></svg>