<svg fill="none" height="76" viewBox="0 0 71 76" width="71" xmlns="http://www.w3.org/2000/svg"><g stroke="#0050dd" stroke-linejoin="round" stroke-miterlimit="10" stroke-width="2"><path d="m28.4355 28.818h13.883v17.963h-13.883z"/><path d="m35.3796 1s-32.53195 33.929-.2399 73.134c0 0 31.8359-32.565.2399-73.134z"/><path d="m13.1855 23.878 45.116.25"/><path d="m1.76834 21.191-.03299 5.466 8.46795.003 3.0731-2.758-2.975-2.691z"/><path d="m69.4709 21.191.033 5.466-8.468.003-3.073-2.758 2.975-2.691z" opacity=".985754"/><path d="m12.9463 52.117 45.116.251"/><path d="m1.52811 49.43-.03202 5.466 8.46802.004 3.07199-2.759-2.974-2.691z"/><path d="m69.2316 49.43.032 5.466-8.468.004-3.072-2.759 2.974-2.691z" opacity=".985754"/><g stroke-linecap="round"><path d="m35.0215 7.36002.169 11.80598"/><path d="m35.3584 56.102.17 11.806"/></g></g></svg>