<svg fill="none" height="76" viewBox="0 0 77 76" width="77" xmlns="http://www.w3.org/2000/svg"><g stroke="#0050dd" stroke-linejoin="round" stroke-miterlimit="10" stroke-width="2"><path d="m1.93359 37.573c0-20.196 16.37201-36.56699 36.56701-36.56699s36.567 16.37099 36.567 36.56699c0 20.195-16.372 36.566-36.567 36.566s-36.56701-16.371-36.56701-36.566z"/><path d="m10.8066 37.573c0-16.003 12.5931-28.97598 28.1271-28.97598 15.535 0 28.1279 12.97298 28.1279 28.97598 0 16.002-12.5929 28.975-28.1279 28.975-15.534 0-28.1271-12.973-28.1271-28.975z"/><path d="m17.3574 37.16c0-12.503 9.839-22.639 21.977-22.639 12.137 0 21.976 10.136 21.976 22.639s-9.839 22.639-21.976 22.639c-12.138 0-21.977-10.136-21.977-22.639z"/><path d="m25.2959 37.849c0-7.731 6.254-13.998 13.969-13.998s13.97 6.267 13.97 13.998c0 7.73-6.255 13.997-13.97 13.997s-13.969-6.267-13.969-13.997z"/><path d="m32.5674 37.701c0-3.835 3.14-6.944 7.013-6.944s7.013 3.109 7.013 6.944-3.14 6.944-7.013 6.944-7.013-3.109-7.013-6.944z"/><g stroke-linecap="round"><path d="m39.2949 37.014 32.423-32.423"/><path d="m57.777 9.23801-.528 10.24399 9.188-.317 8.344-8.66-8.344-.317v-9.188z"/></g></g></svg>