<svg width="39" height="27" viewBox="0 0 39 27" fill="none" xmlns="http://www.w3.org/2000/svg">
<path fill-rule="evenodd" clip-rule="evenodd" d="M30.6 10.8667C34.6872 10.8667 38 14.1795 38 18.2667C38 22.354 34.6872 25.6667 30.6 25.6667C26.5127 25.6667 23.2 22.354 23.2 18.2667C23.2 14.1795 26.5127 10.8667 30.6 10.8667V10.8667Z" stroke="#0050DD" stroke-width="2" stroke-linecap="round" stroke-linejoin="round"/>
<path fill-rule="evenodd" clip-rule="evenodd" d="M8.4 10.8667C12.4873 10.8667 15.8 14.1795 15.8 18.2667C15.8 22.354 12.4873 25.6667 8.4 25.6667C4.31273 25.6667 1 22.354 1 18.2667C1 14.1795 4.31273 10.8667 8.4 10.8667V10.8667Z" stroke="#0050DD" stroke-width="2" stroke-linecap="round" stroke-linejoin="round"/>
<path d="M14.5666 2.23346H8.3999" stroke="#0050DD" stroke-width="2" stroke-linecap="round" stroke-linejoin="round"/>
<path d="M30.5999 18.2667L28.1332 1H21.9666" stroke="#0050DD" stroke-width="2" stroke-linecap="round" stroke-linejoin="round"/>
<path d="M28.9966 7.16681H10.8666L8.3999 18.2668" stroke="#0050DD" stroke-width="2" stroke-linecap="round" stroke-linejoin="round"/>
</svg>
