<svg width="36" height="36" viewBox="0 0 36 36" fill="none" xmlns="http://www.w3.org/2000/svg">
<path d="M18 5.63634C18 3.07614 15.9237 0.999878 13.3635 0.999878C11.3371 0.999878 9.63373 2.30774 9.00247 4.11881C8.90953 4.11541 8.82113 4.09048 8.72707 4.09048C4.46007 4.09048 1 7.55054 1 11.8187C1 13.9017 1.83413 15.7853 3.17487 17.1748C1.87267 17.9965 1 19.4369 1 21.0905C1 22.6545 1.77973 24.0303 2.9652 24.8701C2.71473 25.6306 2.54587 26.4285 2.54587 27.2728C2.54587 31.5398 6.0048 34.9999 10.2729 34.9999C14.5399 34.9999 18 31.5398 18 27.2728V15.7332" stroke="#0050DD" stroke-width="2" stroke-linecap="round" stroke-linejoin="round"/>
<path d="M18 5.63634C18 3.07614 20.0763 0.999878 22.6365 0.999878C24.6629 0.999878 26.3663 2.30774 26.9975 4.11881C27.0905 4.11541 27.1789 4.09048 27.2729 4.09048C31.5399 4.09048 35 7.55054 35 11.8187C35 13.9017 34.1659 15.7853 32.8251 17.1748C34.1273 17.9965 35 19.4369 35 21.0905C35 22.6545 34.2203 24.0303 33.0348 24.8701C33.2853 25.6306 33.4541 26.4285 33.4541 27.2728C33.4541 31.5398 29.9952 34.9999 25.7271 34.9999C21.4601 34.9999 18 31.5398 18 27.2728" stroke="#0050DD" stroke-width="2" stroke-linecap="round" stroke-linejoin="round"/>
<path d="M8.7274 19.5454C6.531 19.5454 4.5488 18.6286 3.14233 17.1575" stroke="#0050DD" stroke-width="2" stroke-linecap="round" stroke-linejoin="round"/>
<path d="M27.2727 19.5454C29.4691 19.5454 31.4513 18.6286 32.8578 17.1575" stroke="#0050DD" stroke-width="2" stroke-linecap="round" stroke-linejoin="round"/>
<path d="M17.9999 5.63635C17.9999 8.19655 16.0268 10.0666 13.4666 10.0666" stroke="#0050DD" stroke-width="2" stroke-linecap="round" stroke-linejoin="round"/>
<path d="M18 5.63635C18 8.19655 19.9731 10.0666 22.5333 10.0666" stroke="#0050DD" stroke-width="2" stroke-linecap="round" stroke-linejoin="round"/>
<path d="M11.8095 23.915C10.0131 23.2758 8.72681 21.5611 8.72681 19.546C8.72681 18.1724 9.32407 16.9393 10.2727 16.0905" stroke="#0050DD" stroke-width="2" stroke-linecap="round" stroke-linejoin="round"/>
<path d="M24.1904 23.915C25.9868 23.2758 27.2731 21.5611 27.2731 19.546C27.2731 18.1724 26.6758 16.9393 25.7272 16.0905" stroke="#0050DD" stroke-width="2" stroke-linecap="round" stroke-linejoin="round"/>
</svg>
