<svg width="43" height="29" viewBox="0 0 43 29" fill="none" xmlns="http://www.w3.org/2000/svg">
<path d="M13.1499 17.2H29.3499" stroke="#0050DD" stroke-width="2" stroke-linecap="round" stroke-linejoin="round"/>
<path d="M13.1499 11.8H29.3499" stroke="#0050DD" stroke-width="2" stroke-linecap="round" stroke-linejoin="round"/>
<path fill-rule="evenodd" clip-rule="evenodd" d="M32.0501 28V28C30.5583 28 29.3501 26.7918 29.3501 25.3V3.7C29.3501 2.20825 30.5583 1 32.0501 1C33.5418 1 34.7501 2.20825 34.7501 3.7V25.3C34.7501 26.7918 33.5418 28 32.0501 28V28Z" stroke="#0050DD" stroke-width="2" stroke-linecap="round" stroke-linejoin="round"/>
<path fill-rule="evenodd" clip-rule="evenodd" d="M10.45 28V28C8.95825 28 7.75 26.7918 7.75 25.3V3.7C7.75 2.20825 8.95825 1 10.45 1V1C11.9418 1 13.15 2.20825 13.15 3.7V25.3C13.15 26.7918 11.9418 28 10.45 28V28Z" stroke="#0050DD" stroke-width="2" stroke-linecap="round" stroke-linejoin="round"/>
<path d="M3.7002 6.3999V22.5999" stroke="#0050DD" stroke-width="2" stroke-linecap="round" stroke-linejoin="round"/>
<path d="M3.7 14.5H1" stroke="#0050DD" stroke-width="2" stroke-linecap="round" stroke-linejoin="round"/>
<path d="M38.7998 6.3999V22.5999" stroke="#0050DD" stroke-width="2" stroke-linecap="round" stroke-linejoin="round"/>
<path d="M38.7998 14.5H41.4998" stroke="#0050DD" stroke-width="2" stroke-linecap="round" stroke-linejoin="round"/>
</svg>
