<svg width="39" height="39" viewBox="0 0 39 39" fill="none" xmlns="http://www.w3.org/2000/svg">
<path fill-rule="evenodd" clip-rule="evenodd" d="M1 22.6894C1 14.2343 7.85523 7.37903 16.3104 7.37903C24.7656 7.37903 31.6208 14.2343 31.6208 22.6894C31.6208 31.1446 24.7656 37.9998 16.3104 37.9998C7.85523 37.9998 1 31.1446 1 22.6894V22.6894Z" stroke="#0050DD" stroke-width="2" stroke-linecap="round" stroke-linejoin="round"/>
<path fill-rule="evenodd" clip-rule="evenodd" d="M7.37891 22.6898C7.37891 17.7574 11.3775 13.7588 16.31 13.7588C21.2425 13.7588 25.241 17.7574 25.241 22.6898C25.241 27.6223 21.2425 31.6209 16.31 31.6209C11.3775 31.6209 7.37891 27.6223 7.37891 22.6898V22.6898Z" stroke="#0050DD" stroke-width="2" stroke-linecap="round" stroke-linejoin="round"/>
<path fill-rule="evenodd" clip-rule="evenodd" d="M13.7578 22.6895C13.7578 21.2797 14.8997 20.1378 16.3095 20.1378C17.7194 20.1378 18.8613 21.2797 18.8613 22.6895C18.8613 24.0994 17.7194 25.2413 16.3095 25.2413C14.8997 25.2413 13.7578 24.0994 13.7578 22.6895V22.6895Z" stroke="#0050DD" stroke-width="2" stroke-linecap="round" stroke-linejoin="round"/>
<path d="M18.1133 20.8849L36.7231 2.27515" stroke="#0050DD" stroke-width="2" stroke-linecap="round" stroke-linejoin="round"/>
<path d="M30.3462 8.6552L29.0703 4.8276L32.8979 1L34.1738 4.8276" stroke="#0050DD" stroke-width="2" stroke-linecap="round" stroke-linejoin="round"/>
<path d="M30.3438 8.65474L34.1713 9.93061L37.9989 6.10301L34.1713 4.82715" stroke="#0050DD" stroke-width="2" stroke-linecap="round" stroke-linejoin="round"/>
</svg>
