<svg width="293" height="243" viewBox="0 0 293 243" fill="none" xmlns="http://www.w3.org/2000/svg">
<path d="M280.416 0V17.8213C255.199 27.035 235.438 41.583 221.133 61.4653C206.827 81.105 199.675 101.593 199.675 122.931C199.675 127.537 200.402 130.932 201.857 133.114C202.827 134.569 203.918 135.296 205.13 135.296C206.342 135.296 208.161 134.448 210.586 132.75C218.345 127.174 228.164 124.385 240.045 124.385C253.866 124.385 266.111 130.083 276.779 141.479C287.448 152.633 292.782 165.968 292.782 181.486C292.782 197.731 286.599 212.037 274.233 224.403C262.11 236.769 247.319 242.951 229.862 242.951C209.495 242.951 191.916 234.586 177.125 217.856C162.335 201.126 154.94 178.698 154.94 150.572C154.94 117.839 165.002 88.5003 185.127 62.5564C205.251 36.6124 237.015 15.7603 280.416 0ZM125.476 0V17.8213C100.26 27.035 80.4989 41.583 66.1934 61.4653C51.8878 81.105 44.7351 101.593 44.7351 122.931C44.7351 127.537 45.4625 130.932 46.9173 133.114C47.8871 134.569 48.9782 135.296 50.1906 135.296C51.4029 135.296 53.2214 134.448 55.6461 132.75C63.405 127.174 73.2249 124.385 85.1057 124.385C98.9263 124.385 111.171 130.083 121.839 141.479C132.508 152.633 137.842 165.968 137.842 181.486C137.842 197.731 131.659 212.037 119.294 224.403C107.17 236.769 92.3797 242.951 74.9221 242.951C54.555 242.951 36.9761 234.586 22.1857 217.856C7.39523 201.126 0 178.698 0 150.572C0 117.839 10.0624 88.5003 30.1871 62.5564C50.3118 36.6124 82.0749 15.7603 125.476 0Z" fill="#D0DDEF" fill-opacity="0.36"/>
</svg>
