<svg width="19" height="19" viewBox="0 0 19 19" fill="none" xmlns="http://www.w3.org/2000/svg">
<path d="M9.96191 1.69249C11.1104 1.69249 12.3174 1.71596 13.583 1.76291C14.2158 1.78638 14.7783 1.88028 15.2705 2.0446C15.6689 2.20892 16.0088 2.43193 16.29 2.71362C16.5947 3.01879 16.8174 3.35917 16.958 3.73476C17.1455 4.20424 17.251 4.76763 17.2744 5.42491C17.3213 6.73948 17.3447 7.96014 17.3447 9.08691C17.3447 10.2372 17.3213 11.4461 17.2744 12.7137C17.251 13.3475 17.1572 13.9109 16.9932 14.4039C16.8291 14.8029 16.6064 15.1433 16.3252 15.425C16.0205 15.7302 15.6807 15.9532 15.3057 16.094C14.8369 16.2818 14.2744 16.3874 13.6182 16.4109C12.3057 16.4579 11.0869 16.4813 9.96191 16.4813C8.81348 16.4813 7.60645 16.4579 6.34082 16.4109C5.70801 16.3874 5.14551 16.2935 4.65332 16.1292C4.25488 15.9649 3.91504 15.7419 3.63379 15.4602C3.3291 15.155 3.10645 14.8147 2.96582 14.4391C2.77832 13.9696 2.67285 13.4062 2.64941 12.7489C2.60254 11.4344 2.5791 10.2137 2.5791 9.08691C2.5791 7.93667 2.60254 6.72774 2.64941 5.46012C2.67285 4.82631 2.7666 4.26293 2.93066 3.76997C3.09473 3.3709 3.31738 3.03053 3.59863 2.74883C3.90332 2.44367 4.24316 2.22066 4.61816 2.07981C5.08691 1.89202 5.64941 1.78638 6.30566 1.76291C7.61816 1.71596 8.83691 1.69249 9.96191 1.69249ZM13.6533 0.143177C12.3877 0.0962283 11.1572 0.0727539 9.96191 0.0727539C8.7666 0.0727539 7.53613 0.0962283 6.27051 0.143177C5.37988 0.166651 4.65332 0.29576 4.09082 0.530504C3.45801 0.788722 2.91895 1.14084 2.47363 1.58685C2.02832 2.03286 1.67676 2.57277 1.41895 3.20658C1.18457 3.81692 1.05566 4.54462 1.03223 5.3897C0.985352 6.65732 0.961914 7.88972 0.961914 9.08691C0.961914 10.2841 0.985352 11.5165 1.03223 12.7841C1.05566 13.6762 1.18457 14.4039 1.41895 14.9672C1.67676 15.6011 2.02832 16.141 2.47363 16.587C2.91895 17.033 3.45801 17.3851 4.09082 17.6433C4.7002 17.8781 5.42676 18.0072 6.27051 18.0307C7.53613 18.0776 8.7666 18.1011 9.96191 18.1011C11.1572 18.1011 12.3877 18.0776 13.6533 18.0307C14.5439 18.0072 15.2705 17.8781 15.833 17.6433C16.4658 17.3851 17.0049 17.033 17.4502 16.587C17.8955 16.141 18.2471 15.6011 18.5049 14.9672C18.7393 14.3569 18.8682 13.6292 18.8916 12.7841C18.9385 11.5165 18.9619 10.2841 18.9619 9.08691C18.9619 7.88972 18.9385 6.65732 18.8916 5.3897C18.8682 4.49767 18.7393 3.76997 18.5049 3.20658C18.2471 2.57277 17.8955 2.03286 17.4502 1.58685C17.0049 1.14084 16.4658 0.788722 15.833 0.530504C15.2236 0.29576 14.4971 0.166651 13.6533 0.143177ZM13.2314 5.81224C12.3408 4.89674 11.251 4.43899 9.96191 4.43899C8.67285 4.43899 7.57129 4.89674 6.65723 5.81224C5.7666 6.70426 5.32129 7.79582 5.32129 9.08691C5.32129 10.378 5.7666 11.4813 6.65723 12.3968C7.57129 13.2888 8.67285 13.7348 9.96191 13.7348C11.251 13.7348 12.3408 13.2888 13.2314 12.3968C14.1455 11.4813 14.6025 10.378 14.6025 9.08691C14.6025 7.79582 14.1455 6.70426 13.2314 5.81224ZM12.0713 11.2348C11.4854 11.8217 10.7822 12.1151 9.96191 12.1151C9.1416 12.1151 8.42676 11.8217 7.81738 11.2348C7.23145 10.6245 6.93848 9.90852 6.93848 9.08691C6.93848 8.26531 7.23145 7.56108 7.81738 6.97422C8.42676 6.36389 9.1416 6.05872 9.96191 6.05872C10.7822 6.05872 11.4854 6.36389 12.0713 6.97422C12.6807 7.56108 12.9854 8.26531 12.9854 9.08691C12.9854 9.90852 12.6807 10.6245 12.0713 11.2348ZM15.5166 3.52349C15.7275 3.71128 15.833 3.95776 15.833 4.26293C15.833 4.5681 15.7275 4.82631 15.5166 5.03758C15.3291 5.24885 15.083 5.35449 14.7783 5.35449C14.4736 5.35449 14.2158 5.24885 14.0049 5.03758C13.7939 4.82631 13.6885 4.5681 13.6885 4.26293C13.6885 3.95776 13.7939 3.71128 14.0049 3.52349C14.2158 3.31222 14.4736 3.20658 14.7783 3.20658C15.083 3.20658 15.3291 3.31222 15.5166 3.52349Z" fill="#00318F"/>
</svg>
