<svg width="22" height="15" viewBox="0 0 22 15" fill="none" xmlns="http://www.w3.org/2000/svg">
<path d="M21.7568 3.3976C21.6201 2.41168 21.3467 1.71332 20.9365 1.30252C20.4443 0.782173 19.7334 0.48092 18.8037 0.39876L11.4619 0.193359C8.50879 0.193359 6.06152 0.261826 4.12012 0.39876C3.19043 0.48092 2.47949 0.782173 1.9873 1.30252C1.7959 1.49423 1.63184 1.76809 1.49512 2.12412C1.3584 2.45276 1.2627 2.74032 1.20801 2.9868L1.16699 3.3976C1.03027 4.52046 0.961914 5.64331 0.961914 6.76617V8.36829L1.16699 11.7779C1.30371 12.7365 1.57715 13.4348 1.9873 13.873C2.15137 14.0373 2.31543 14.1743 2.47949 14.2838C2.6709 14.3934 2.8623 14.4755 3.05371 14.5303C3.24512 14.5851 3.40918 14.6262 3.5459 14.6535C3.68262 14.6809 3.83301 14.7083 3.99707 14.7357C4.18848 14.7631 4.29785 14.7768 4.3252 14.7768L11.4619 14.9822C14.415 14.9822 16.8623 14.9137 18.8037 14.7768C19.7061 14.6946 20.417 14.3934 20.9365 13.873C21.1279 13.6813 21.292 13.4074 21.4287 13.0514C21.5654 12.6954 21.6611 12.3941 21.7158 12.1477L21.7568 11.7779C21.8936 10.6551 21.9619 9.51853 21.9619 8.36829V6.76617L21.7568 3.3976ZM14.292 7.75209L9.3291 10.3401V4.4246L14.9893 7.38237L14.292 7.75209Z" fill="#00318F"/>
</svg>
