<svg width="49" height="40" viewBox="0 0 49 40" fill="none" xmlns="http://www.w3.org/2000/svg">
<path d="M46.9305 0V2.93413C42.7102 4.4511 39.403 6.84631 37.0088 10.1198C34.6147 13.3533 33.4176 16.7265 33.4176 20.2395C33.4176 20.998 33.5393 21.5569 33.7828 21.9162C33.9451 22.1557 34.1277 22.2754 34.3306 22.2754C34.5335 22.2754 34.8378 22.1357 35.2436 21.8563C36.5422 20.9381 38.1856 20.479 40.174 20.479C42.487 20.479 44.5363 21.4172 46.3218 23.2934C48.1073 25.1297 49 27.3253 49 29.8802C49 32.5549 47.9652 34.9102 45.8957 36.9461C43.8667 38.982 41.3914 40 38.4697 40C35.061 40 32.119 38.6228 29.6437 35.8683C27.1684 33.1138 25.9307 29.4212 25.9307 24.7904C25.9307 19.4012 27.6147 14.5709 30.9828 10.2994C34.3509 6.02794 39.6668 2.59481 46.9305 0ZM20.9997 0V2.93413C16.7795 4.4511 13.4723 6.84631 11.0781 10.1198C8.68396 13.3533 7.48687 16.7265 7.48687 20.2395C7.48687 20.998 7.6086 21.5569 7.85208 21.9162C8.0144 22.1557 8.197 22.2754 8.3999 22.2754C8.6028 22.2754 8.90714 22.1357 9.31293 21.8563C10.6115 20.9381 12.2549 20.479 14.2433 20.479C16.5563 20.479 18.6056 21.4172 20.3911 23.2934C22.1765 25.1297 23.0693 27.3253 23.0693 29.8802C23.0693 32.5549 22.0345 34.9102 19.965 36.9461C17.936 38.982 15.4607 40 12.539 40C9.13033 40 6.18833 38.6228 3.713 35.8683C1.23767 33.1138 0 29.4212 0 24.7904C0 19.4012 1.68404 14.5709 5.05211 10.2994C8.42019 6.02794 13.7361 2.59481 20.9997 0Z" fill="#D0DDEF" fill-opacity="0.36"/>
</svg>
