<svg width="85" height="76" viewBox="0 0 85 76" fill="none" xmlns="http://www.w3.org/2000/svg">
<path d="M42.4765 28.4539L45.0667 36.6069C45.5284 38.06 46.8777 39.0471 48.4024 39.0471H56.8783C57.36 39.0471 57.5632 39.6612 57.1766 39.9485L50.2426 45.1007C49.0434 45.9918 48.542 47.5459 48.9944 48.9698L51.6246 57.2487C51.7716 57.7113 51.2395 58.0909 50.8499 57.8014L44.0875 52.7766C42.8482 51.8557 41.1518 51.8557 39.9125 52.7766L33.1501 57.8014C32.7605 58.0909 32.2284 57.7113 32.3754 57.2487L35.0056 48.9698C35.458 47.5459 34.9566 45.9918 33.7574 45.1007L26.8234 39.9484C26.4368 39.6612 26.64 39.0471 27.1217 39.0471H35.5976C37.1223 39.0471 38.4716 38.06 38.9333 36.6069L41.5235 28.4539C41.6711 27.9891 42.3289 27.9891 42.4765 28.4539Z" stroke="#0050DD" stroke-width="3"/>
<path d="M26 9L31 19" stroke="#0050DD" stroke-width="3" stroke-linecap="round"/>
<path d="M57.7251 9L53.0001 19.1328" stroke="#0050DD" stroke-width="3" stroke-linecap="round"/>
<path d="M44.8525 72C59.5299 70.5648 71 58.1708 71 43.0937C71 37.7739 69.5721 32.7882 67.0791 28.5M39.1475 72C24.4701 70.5648 13 58.1708 13 43.0937C13 37.3747 14.6503 32.0417 17.5 27.5465" stroke="#0050DD" stroke-width="3" stroke-linecap="round" stroke-linejoin="round"/>
<path d="M67.5534 29C65.8212 26.0833 63.8688 18.5 71.8057 15C74.6399 18.5 76.0572 26.8125 67.5534 29Z" stroke="#0050DD" stroke-width="3" stroke-linejoin="round"/>
<path d="M71.3348 41.8254C71.3377 38.4331 73.5379 30.9179 82.1484 31.9689C82.7941 36.426 79.7612 44.2942 71.3348 41.8254Z" stroke="#0050DD" stroke-width="3" stroke-linejoin="round"/>
<path d="M67.705 55.7385C69.5177 52.8711 75.3888 47.6896 82.1099 53.1733C80.2776 57.2873 73.5139 62.323 67.705 55.7385Z" stroke="#0050DD" stroke-width="3" stroke-linejoin="round"/>
<path d="M56.3544 68.7062C58.799 66.3543 65.737 62.7235 70.9553 69.6526C68.1941 73.2105 60.4241 76.4867 56.3544 68.7062Z" stroke="#0050DD" stroke-width="3" stroke-linejoin="round"/>
<path d="M27.1014 69.7062C24.6568 67.3543 17.7188 63.7235 12.5005 70.6526C15.2617 74.2105 23.0317 77.4867 27.1014 69.7062Z" stroke="#0050DD" stroke-width="3" stroke-linejoin="round"/>
<path d="M15.5724 58.8008C14.6625 55.5328 10.5328 48.8797 2.51694 52.195C3.08658 56.6624 8.11302 63.433 15.5724 58.8008Z" stroke="#0050DD" stroke-width="3" stroke-linejoin="round"/>
<path d="M12.8996 41.6858C12.8175 38.2945 10.4424 30.8328 1.85886 32.0846C1.31739 36.5556 4.53318 44.3508 12.8996 41.6858Z" stroke="#0050DD" stroke-width="3" stroke-linejoin="round"/>
<path d="M17.2559 28.067C18.8143 25.0538 20.3189 17.3691 12.1906 14.3402C9.56637 18.0003 8.63859 26.3815 17.2559 28.067Z" stroke="#0050DD" stroke-width="3" stroke-linejoin="round"/>
<path d="M42 10L42 18" stroke="#0050DD" stroke-width="3" stroke-linecap="round"/>
<path d="M42 2L42 3" stroke="#0050DD" stroke-width="3" stroke-linecap="round"/>
</svg>
