<svg width="1163" height="230" viewBox="0 0 1163 230" fill="none" xmlns="http://www.w3.org/2000/svg">
<path opacity="0.5" d="M92.5889 92.2289L77.2513 92.2289C70.7444 92.2289 66.0544 90.581 63.1812 87.2853C60.3081 83.9052 58.8715 79.4687 58.8715 73.9759C58.8715 61.8072 67.9558 55.7228 86.1243 55.7228C103.194 55.7228 116.039 58.258 124.658 63.3283L117.307 68.9056C111.391 66.2014 100.997 64.8493 86.1243 64.8493C78.8569 64.8493 73.9556 65.6521 71.4205 67.2577C68.9698 68.8633 67.7445 71.1027 67.7445 73.9759C67.7445 76.849 68.4205 79.0884 69.7726 80.694C71.1247 82.2996 73.6176 83.1024 77.2513 83.1024H92.9692C104.377 83.1024 114.645 85.046 123.771 88.9332C132.982 92.8204 140.545 98.1442 146.461 104.905C152.376 111.58 156.897 119.313 160.024 128.101C163.15 136.805 164.714 146.143 164.714 156.114C164.714 164.227 163.573 171.917 161.291 179.184C159.01 186.452 155.545 193.128 150.897 199.212C146.334 205.296 140.799 210.578 134.292 215.056C127.87 219.451 120.18 222.873 111.222 225.324C102.349 227.859 92.7156 229.127 82.3216 229.127C66.0122 229.127 50.7168 226.634 36.4355 221.648C22.2387 216.747 10.4081 209.859 0.943526 200.986L8.29544 195.536C16.9149 203.31 27.6893 209.352 40.6185 213.662C53.6322 217.887 67.5332 220 82.3216 220C93.8987 220 104.335 218.352 113.631 215.056C123.011 211.676 130.701 207.071 136.7 201.24C142.785 195.409 147.432 188.649 150.644 180.959C153.939 173.269 155.587 164.987 155.587 156.114C155.587 144.368 153.221 133.763 148.489 124.298C143.756 114.749 136.531 107.017 126.813 101.102C117.18 95.1865 105.772 92.2289 92.5889 92.2289ZM77.2513 101.355L91.7016 101.355C108.856 101.355 122.25 106.595 131.884 117.073C141.602 127.552 146.461 140.566 146.461 156.114C146.461 171.917 140.841 185.015 129.602 195.409C118.363 205.719 102.603 210.873 82.3216 210.873C68.8008 210.873 56.1674 209.014 44.4212 205.296C32.675 201.578 22.9148 196.339 15.1403 189.578L22.2387 183.874C29.1681 189.536 37.8721 193.93 48.3507 197.057C58.9138 200.184 70.2374 201.747 82.3216 201.747C100.152 201.747 113.757 197.479 123.137 188.945C132.602 180.41 137.334 169.466 137.334 156.114C137.334 142.932 133.362 132.031 125.419 123.411C117.56 114.792 106.279 110.482 91.5748 110.482L77.2513 110.482C64.9136 110.482 55.6603 107.102 49.4915 100.341C43.3226 93.5809 40.2382 84.7925 40.2382 73.9759C40.2382 63.1593 44.0409 54.3708 51.6464 47.6104C59.3363 40.85 70.8289 37.4698 86.1243 37.4698C96.8564 37.4698 106.828 38.7374 116.039 41.2725C125.25 43.7232 132.855 47.2724 138.855 51.9201L131.63 57.4974C121.067 50.23 105.898 46.5963 86.1243 46.5963C73.3641 46.5963 64.0263 49.1315 58.111 54.2018C52.2801 59.1875 49.3647 65.7789 49.3647 73.9759C49.3647 82.2573 51.5196 88.8909 55.8293 93.8767C60.2236 98.8625 67.3642 101.355 77.2513 101.355ZM77.2513 119.608L91.1946 119.608C103.532 119.608 112.786 123.031 118.954 129.876C125.123 136.721 128.208 145.467 128.208 156.114C128.208 166.931 124.363 175.72 116.673 182.48C109.067 189.24 97.6169 192.62 82.3216 192.62C71.5895 192.62 61.5757 191.395 52.2801 188.945C43.0691 186.409 35.4637 182.818 29.4639 178.17L36.689 172.593C47.2521 179.86 62.463 183.494 82.3216 183.494C95.0818 183.494 104.377 181.001 110.208 176.015C116.123 170.945 119.081 164.311 119.081 156.114C119.081 147.917 116.884 141.326 112.49 136.34C108.096 131.27 100.955 128.735 91.0678 128.735L77.2513 128.735C59.9278 128.735 46.3648 123.58 36.5623 113.271C26.8442 102.876 21.9852 89.7782 21.9852 73.9759C21.9852 58.1735 27.6048 45.1175 38.8439 34.8079C50.083 24.4138 65.8431 19.2168 86.1243 19.2168C99.645 19.2168 112.236 21.0759 123.898 24.7941C135.644 28.5123 145.404 33.7516 153.179 40.512L146.08 46.2161C139.151 40.5542 130.447 36.16 119.968 33.0333C109.49 29.9066 98.2085 28.3433 86.1243 28.3433C68.2938 28.3433 54.6463 32.6108 45.1817 41.1458C35.8017 49.6807 31.1117 60.6241 31.1117 73.9759C31.1117 87.2431 35.0834 98.1865 43.0269 106.806C50.9703 115.341 62.3785 119.608 77.2513 119.608ZM77.2513 137.861L91.1946 137.861C97.7014 137.861 102.391 139.552 105.265 142.932C108.138 146.312 109.574 150.706 109.574 156.114C109.574 168.283 100.49 174.367 82.3216 174.367C65.1671 174.367 52.2801 171.832 43.6607 166.762L51.0126 161.185C56.9279 163.889 67.3642 165.241 82.3216 165.241C89.589 165.241 94.448 164.438 96.8986 162.833C99.4338 161.227 100.701 158.988 100.701 156.114C100.701 153.326 99.9831 151.129 98.5465 149.523C97.1944 147.833 94.6593 146.988 90.941 146.988L77.2513 146.988C65.5896 146.988 55.0265 145.087 45.562 141.284C36.182 137.481 28.4498 132.242 22.3655 125.566C16.3656 118.89 11.7601 111.158 8.54895 102.369C5.33777 93.5809 3.73218 84.1164 3.73218 73.9759C3.73218 65.8634 4.87299 58.1735 7.15462 50.9061C9.43625 43.6387 12.8587 36.9628 17.4219 30.8785C22.0697 24.7941 27.6048 19.5548 34.0271 15.1606C40.534 10.6818 48.2239 7.21713 57.0969 4.76649C66.0544 2.23135 75.7302 0.963782 86.1243 0.963782C102.434 0.963782 117.687 3.45667 131.884 8.44245C146.08 13.3437 157.911 20.2309 167.376 29.1039L160.024 34.5544C151.404 26.78 140.63 20.7801 127.701 16.5549C114.771 12.2452 100.913 10.0903 86.1243 10.0903C74.5471 10.0903 64.0685 11.7804 54.6885 15.1606C45.393 18.4563 37.7031 23.0195 31.6187 28.8503C25.6189 34.6812 20.9711 41.4415 17.6755 49.1315C14.4643 56.8214 12.8587 65.1029 12.8587 73.9759C12.8587 85.891 15.2671 96.6231 20.0838 106.172C24.9006 115.721 32.2525 123.411 42.1396 129.242C52.0266 134.988 63.7305 137.861 77.2513 137.861ZM255.979 120.622L308.963 120.622C317.667 120.622 325.019 117.707 331.019 111.876C337.103 105.961 340.145 97.6372 340.145 86.9051C340.145 78.8771 336.977 71.6942 330.639 65.3564C324.301 58.934 317.076 55.7228 308.963 55.7228L230.627 55.7228V220H221.501L221.501 46.5963L308.963 46.5963C319.611 46.5963 328.991 50.6948 337.103 58.8918C345.216 67.0887 349.272 76.4265 349.272 86.9051C349.272 99.8343 345.342 110.228 337.484 118.087C329.625 125.862 320.118 129.749 308.963 129.749L255.979 129.749V120.622ZM255.979 138.875L308.963 138.875C317.752 138.875 325.864 136.763 333.301 132.538C340.821 128.228 346.864 122.059 351.427 114.031C356.075 106.003 358.398 96.9611 358.398 86.9051C358.398 73.8914 353.413 62.3987 343.441 52.4272C333.554 42.4556 322.061 37.4698 308.963 37.4698L212.374 37.4698L212.374 220H203.248L203.248 28.3433L308.963 28.3433C319.188 28.3433 328.822 31.0475 337.864 36.4558C346.906 41.8641 354.089 49.0892 359.413 58.1312C364.821 67.1732 367.525 76.7645 367.525 86.9051C367.525 98.3977 364.821 108.876 359.413 118.341C354.004 127.721 346.821 135.031 337.864 140.27C328.991 145.425 319.357 148.002 308.963 148.002L255.979 148.002V138.875ZM255.979 157.128L308.963 157.128C318.005 157.128 326.667 155.354 334.948 151.805C343.23 148.171 350.413 143.312 356.497 137.228C362.666 131.059 367.567 123.622 371.201 114.918C374.835 106.13 376.651 96.7921 376.651 86.9051C376.651 75.0744 373.567 63.962 367.398 53.568C361.229 43.0894 352.906 34.7657 342.427 28.5968C332.033 22.3435 320.878 19.2168 308.963 19.2168L194.121 19.2168L194.121 220H184.995L184.995 10.0903L308.963 10.0903C322.484 10.0903 335.16 13.6395 346.99 20.7379C358.821 27.7518 368.243 37.1741 375.257 49.0047C382.271 60.8354 385.778 73.4688 385.778 86.9051C385.778 98.9047 383.708 109.975 379.567 120.115C375.426 130.171 369.849 138.537 362.835 145.213C355.821 151.889 347.666 157.086 338.371 160.804C329.075 164.438 319.273 166.255 308.963 166.255L255.979 166.255V157.128ZM248.88 220H239.754V64.8493L308.963 64.8493C314.963 64.8493 320.118 67.0465 324.428 71.4407C328.822 75.835 331.019 80.9897 331.019 86.9051C331.019 103.299 323.667 111.496 308.963 111.496L255.979 111.496V102.369L308.963 102.369C313.019 102.369 316.188 101.229 318.47 98.947C320.752 96.6654 321.892 92.6514 321.892 86.9051C321.892 83.1869 320.625 80.1024 318.09 77.6518C315.639 75.2012 312.597 73.9759 308.963 73.9759L248.88 73.9759V220ZM479.705 79.5532C469.902 89.3557 465.001 101.186 465.001 115.045C465.001 128.904 469.902 140.735 479.705 150.537C489.508 160.34 501.338 165.241 515.197 165.241C529.056 165.241 540.886 160.34 550.689 150.537C560.491 140.735 565.393 128.904 565.393 115.045C565.393 101.186 560.491 89.3557 550.689 79.5532C540.886 69.7506 529.056 64.8493 515.197 64.8493C501.338 64.8493 489.508 69.7506 479.705 79.5532ZM460.565 138.115C457.438 130.763 455.875 123.073 455.875 115.045C455.875 107.017 457.438 99.3695 460.565 92.1021C463.691 84.7502 467.917 78.4124 473.24 73.0886C478.564 67.7648 484.86 63.5395 492.127 60.4128C499.479 57.2862 507.169 55.7228 515.197 55.7228C523.225 55.7228 530.873 57.2862 538.14 60.4128C545.492 63.5395 551.83 67.7648 557.154 73.0886C562.477 78.4124 566.703 84.7502 569.829 92.1021C572.956 99.3695 574.519 107.017 574.519 115.045C574.519 123.073 572.956 130.763 569.829 138.115C566.703 145.382 562.477 151.678 557.154 157.002C551.83 162.326 545.492 166.551 538.14 169.677C530.873 172.804 523.225 174.367 515.197 174.367C507.169 174.367 499.479 172.804 492.127 169.677C484.86 166.551 478.564 162.326 473.24 157.002C467.917 151.678 463.691 145.382 460.565 138.115ZM455.875 80.694C449.79 91.1726 446.748 102.623 446.748 115.045C446.748 127.467 449.79 138.918 455.875 149.396C462.044 159.875 470.367 168.199 480.846 174.367C491.324 180.452 502.775 183.494 515.197 183.494C527.619 183.494 539.07 180.452 549.548 174.367C560.027 168.199 568.308 159.875 574.393 149.396C580.561 138.918 583.646 127.467 583.646 115.045C583.646 102.623 580.561 91.1726 574.393 80.694C568.308 70.2154 560.027 61.9339 549.548 55.8496C539.07 49.6807 527.619 46.5963 515.197 46.5963C502.775 46.5963 491.324 49.6807 480.846 55.8496C470.367 61.9339 462.044 70.2154 455.875 80.694ZM448.016 153.96C441.086 142.044 437.622 129.073 437.622 115.045C437.622 101.017 441.086 88.0459 448.016 76.1307C454.945 64.2156 464.367 54.7933 476.283 47.8639C488.198 40.9345 501.169 37.4698 515.197 37.4698C529.225 37.4698 542.196 40.9345 554.111 47.8639C566.027 54.7933 575.449 64.2156 582.378 76.1307C589.308 88.0459 592.772 101.017 592.772 115.045C592.772 129.073 589.308 142.044 582.378 153.96C575.449 165.875 566.027 175.297 554.111 182.226C542.196 189.156 529.225 192.62 515.197 192.62C501.169 192.62 488.198 189.156 476.283 182.226C464.367 175.297 454.945 165.875 448.016 153.96ZM435.34 81.3278C430.777 92.0599 428.495 103.299 428.495 115.045C428.495 126.791 430.777 138.03 435.34 148.763C439.903 159.495 446.03 168.748 453.72 176.522C461.494 184.212 470.747 190.339 481.48 194.902C492.212 199.465 503.451 201.747 515.197 201.747C526.943 201.747 538.182 199.465 548.914 194.902C559.646 190.339 568.857 184.212 576.547 176.522C584.322 168.748 590.491 159.495 595.054 148.763C599.617 138.03 601.899 126.791 601.899 115.045C601.899 103.299 599.617 92.0599 595.054 81.3278C590.491 70.5957 584.322 61.3847 576.547 53.6947C568.857 45.9203 559.646 39.7514 548.914 35.1882C538.182 30.6249 526.943 28.3433 515.197 28.3433C503.451 28.3433 492.212 30.6249 481.48 35.1882C470.747 39.7514 461.494 45.9203 453.72 53.6947C446.03 61.3847 439.903 70.5957 435.34 81.3278ZM432.171 163.086C423.636 148.382 419.369 132.369 419.369 115.045C419.369 97.7217 423.636 81.708 432.171 67.0042C440.791 52.3004 452.452 40.681 467.156 32.146C481.86 23.5265 497.874 19.2168 515.197 19.2168C532.52 19.2168 548.534 23.5265 563.238 32.146C577.942 40.681 589.561 52.3004 598.096 67.0042C606.716 81.708 611.025 97.7217 611.025 115.045C611.025 132.369 606.716 148.382 598.096 163.086C589.561 177.79 577.942 189.452 563.238 198.071C548.534 206.606 532.52 210.873 515.197 210.873C497.874 210.873 481.86 206.606 467.156 198.071C452.452 189.452 440.791 177.79 432.171 163.086ZM418.481 74.3561C412.989 87.2853 410.242 100.848 410.242 115.045C410.242 129.242 412.989 142.847 418.481 155.861C424.059 168.79 431.537 179.945 440.917 189.325C450.297 198.705 461.452 206.183 474.381 211.761C487.395 217.254 501 220 515.197 220C529.394 220 542.957 217.254 555.886 211.761C568.9 206.183 580.097 198.705 589.477 189.325C598.857 179.945 606.293 168.79 611.786 155.861C617.363 142.847 620.152 129.242 620.152 115.045C620.152 100.848 617.363 87.2853 611.786 74.3561C606.293 61.3424 598.857 50.1455 589.477 40.7655C580.097 31.3855 568.9 23.9491 555.886 18.4563C542.957 12.8789 529.394 10.0903 515.197 10.0903C501 10.0903 487.395 12.8789 474.381 18.4563C461.452 23.9491 450.297 31.3855 440.917 40.7655C431.537 50.1455 424.059 61.3424 418.481 74.3561ZM410.115 159.41C404.116 145.298 401.116 130.51 401.116 115.045C401.116 99.5808 404.116 84.8347 410.115 70.8069C416.2 56.6946 424.312 44.5682 434.453 34.4276C444.678 24.2026 456.804 16.0901 470.832 10.0903C484.944 4.00595 499.733 0.963782 515.197 0.963782C530.661 0.963782 545.407 4.00595 559.435 10.0903C573.547 16.0901 585.674 24.2026 595.814 34.4276C606.04 44.5682 614.152 56.6946 620.152 70.8069C626.236 84.8347 629.278 99.5808 629.278 115.045C629.278 130.51 626.236 145.298 620.152 159.41C614.152 173.438 606.04 185.564 595.814 195.789C585.674 205.93 573.547 214 559.435 220C545.407 226.084 530.661 229.127 515.197 229.127C499.733 229.127 484.944 226.084 470.832 220C456.804 214 444.678 205.93 434.453 195.789C424.312 185.564 416.2 173.438 410.115 159.41ZM717.121 115.552H772.134C780.499 115.552 787.556 112.848 793.302 107.44C799.133 102.031 802.048 94.3415 802.048 84.3699C802.048 77.018 799.006 70.4267 792.922 64.5958C786.837 58.6805 779.908 55.7228 772.134 55.7228L693.798 55.7228V220H684.671V46.5963L772.134 46.5963C782.443 46.5963 791.527 50.4413 799.386 58.1312C807.245 65.7366 811.175 74.4829 811.175 84.3699C811.175 96.5386 807.372 106.299 799.767 113.651C792.161 121.003 782.95 124.679 772.134 124.679H717.121V115.552ZM717.121 133.805H772.134C785.316 133.805 796.64 129.2 806.104 119.989C815.569 110.693 820.301 98.8202 820.301 84.3699C820.301 71.9477 815.442 61.0466 805.724 51.6666C796.091 42.2021 784.894 37.4698 772.134 37.4698L675.545 37.4698V220H666.418V28.3433L772.134 28.3433C782.19 28.3433 791.612 30.9207 800.4 36.0755C809.273 41.2303 816.329 48.1597 821.569 56.8637C826.808 65.4831 829.428 74.6519 829.428 84.3699C829.428 101.017 823.766 114.961 812.442 126.2C801.203 137.354 787.767 142.932 772.134 142.932H717.121V133.805ZM717.121 152.058H772.134C783.964 152.058 794.95 149.143 805.09 143.312C815.231 137.481 823.343 129.369 829.428 118.975C835.512 108.496 838.554 96.9611 838.554 84.3699C838.554 72.9618 835.512 62.272 829.428 52.3004C823.428 42.2443 815.315 34.2164 805.09 28.2166C794.865 22.2167 783.88 19.2168 772.134 19.2168L657.292 19.2168V220H648.165V10.0903L772.134 10.0903C785.401 10.0903 797.865 13.5127 809.527 20.3576C821.189 27.118 830.442 36.2445 837.287 47.7371C844.216 59.1453 847.681 71.3562 847.681 84.3699C847.681 99.4118 844.427 112.637 837.92 124.045C831.498 135.453 822.752 144.368 811.682 150.791L835.259 220H825.625L803.062 155.1C799.682 156.452 797.105 157.382 795.33 157.889L816.499 220H806.865L786.204 160.044C785.443 160.213 782.739 160.509 778.091 160.931L797.738 220H788.105L768.711 161.185H760.472L778.978 220H769.345L750.712 161.185H717.121V152.058ZM712.051 220H702.924V64.8493L772.134 64.8493C777.795 64.8493 782.654 66.793 786.711 70.6802C790.851 74.4829 792.922 79.0461 792.922 84.3699C792.922 99.0738 785.992 106.426 772.134 106.426H717.121V97.2992H772.134C775.767 97.2992 778.598 96.3696 780.626 94.5105C782.739 92.5669 783.795 89.1867 783.795 84.3699C783.795 81.4123 782.654 78.9616 780.373 77.018C778.176 74.9899 775.429 73.9759 772.134 73.9759L712.051 73.9759V220ZM845.399 19.2168V10.0903L982.297 10.0903V19.2168L845.399 19.2168ZM845.399 37.4698V28.3433L982.297 28.3433V37.4698L845.399 37.4698ZM845.399 55.7228V46.5963L982.297 46.5963V55.7228H945.791V220H936.664V55.7228H927.538V220H918.411V55.7228H909.285V220H900.158V55.7228H891.032V220H881.905V55.7228H845.399ZM1087.89 92.2289H1072.55C1066.04 92.2289 1061.35 90.581 1058.48 87.2853C1055.6 83.9052 1054.17 79.4687 1054.17 73.9759C1054.17 61.8072 1063.25 55.7228 1081.42 55.7228C1098.49 55.7228 1111.34 58.258 1119.95 63.3283L1112.6 68.9056C1106.69 66.2014 1096.29 64.8493 1081.42 64.8493C1074.15 64.8493 1069.25 65.6521 1066.72 67.2577C1064.27 68.8633 1063.04 71.1027 1063.04 73.9759C1063.04 76.849 1063.72 79.0884 1065.07 80.694C1066.42 82.2996 1068.91 83.1024 1072.55 83.1024H1088.27C1099.67 83.1024 1109.94 85.046 1119.07 88.9332C1128.28 92.8204 1135.84 98.1442 1141.76 104.905C1147.67 111.58 1152.19 119.313 1155.32 128.101C1158.45 136.805 1160.01 146.143 1160.01 156.114C1160.01 164.227 1158.87 171.917 1156.59 179.184C1154.31 186.452 1150.84 193.128 1146.19 199.212C1141.63 205.296 1136.1 210.578 1129.59 215.056C1123.17 219.451 1115.48 222.873 1106.52 225.324C1097.65 227.859 1088.01 229.127 1077.62 229.127C1061.31 229.127 1046.01 226.634 1031.73 221.648C1017.54 216.747 1005.7 209.859 996.24 200.986L1003.59 195.536C1012.21 203.31 1022.99 209.352 1035.91 213.662C1048.93 217.887 1062.83 220 1077.62 220C1089.2 220 1099.63 218.352 1108.93 215.056C1118.31 211.676 1126 207.071 1132 201.24C1138.08 195.409 1142.73 188.649 1145.94 180.959C1149.24 173.269 1150.88 164.987 1150.88 156.114C1150.88 144.368 1148.52 133.763 1143.79 124.298C1139.05 114.749 1131.83 107.017 1122.11 101.102C1112.48 95.1865 1101.07 92.2289 1087.89 92.2289ZM1072.55 101.355H1087C1104.15 101.355 1117.55 106.595 1127.18 117.073C1136.9 127.552 1141.76 140.566 1141.76 156.114C1141.76 171.917 1136.14 185.015 1124.9 195.409C1113.66 205.719 1097.9 210.873 1077.62 210.873C1064.1 210.873 1051.46 209.014 1039.72 205.296C1027.97 201.578 1018.21 196.339 1010.44 189.578L1017.54 183.874C1024.46 189.536 1033.17 193.93 1043.65 197.057C1054.21 200.184 1065.53 201.747 1077.62 201.747C1095.45 201.747 1109.05 197.479 1118.43 188.945C1127.9 180.41 1132.63 169.466 1132.63 156.114C1132.63 142.932 1128.66 132.031 1120.72 123.411C1112.86 114.792 1101.58 110.482 1086.87 110.482H1072.55C1060.21 110.482 1050.96 107.102 1044.79 100.341C1038.62 93.5809 1035.53 84.7925 1035.53 73.9759C1035.53 63.1593 1039.34 54.3708 1046.94 47.6104C1054.63 40.85 1066.13 37.4698 1081.42 37.4698C1092.15 37.4698 1102.12 38.7374 1111.34 41.2725C1120.55 43.7232 1128.15 47.2724 1134.15 51.9201L1126.93 57.4974C1116.36 50.23 1101.19 46.5963 1081.42 46.5963C1068.66 46.5963 1059.32 49.1315 1053.41 54.2018C1047.58 59.1875 1044.66 65.7789 1044.66 73.9759C1044.66 82.2573 1046.82 88.8909 1051.13 93.8767C1055.52 98.8625 1062.66 101.355 1072.55 101.355ZM1072.55 119.608H1086.49C1098.83 119.608 1108.08 123.031 1114.25 129.876C1120.42 136.721 1123.5 145.467 1123.5 156.114C1123.5 166.931 1119.66 175.72 1111.97 182.48C1104.36 189.24 1092.91 192.62 1077.62 192.62C1066.89 192.62 1056.87 191.395 1047.58 188.945C1038.37 186.409 1030.76 182.818 1024.76 178.17L1031.99 172.593C1042.55 179.86 1057.76 183.494 1077.62 183.494C1090.38 183.494 1099.67 181.001 1105.5 176.015C1111.42 170.945 1114.38 164.311 1114.38 156.114C1114.38 147.917 1112.18 141.326 1107.79 136.34C1103.39 131.27 1096.25 128.735 1086.36 128.735H1072.55C1055.22 128.735 1041.66 123.58 1031.86 113.271C1022.14 102.876 1017.28 89.7782 1017.28 73.9759C1017.28 58.1735 1022.9 45.1175 1034.14 34.8079C1045.38 24.4138 1061.14 19.2168 1081.42 19.2168C1094.94 19.2168 1107.53 21.0759 1119.19 24.7941C1130.94 28.5123 1140.7 33.7516 1148.48 40.512L1141.38 46.2161C1134.45 40.5542 1125.74 36.16 1115.26 33.0333C1104.79 29.9066 1093.5 28.3433 1081.42 28.3433C1063.59 28.3433 1049.94 32.6108 1040.48 41.1458C1031.1 49.6807 1026.41 60.6241 1026.41 73.9759C1026.41 87.2431 1030.38 98.1865 1038.32 106.806C1046.27 115.341 1057.67 119.608 1072.55 119.608ZM1072.55 137.861H1086.49C1093 137.861 1097.69 139.552 1100.56 142.932C1103.43 146.312 1104.87 150.706 1104.87 156.114C1104.87 168.283 1095.79 174.367 1077.62 174.367C1060.46 174.367 1047.58 171.832 1038.96 166.762L1046.31 161.185C1052.22 163.889 1062.66 165.241 1077.62 165.241C1084.89 165.241 1089.74 164.438 1092.2 162.833C1094.73 161.227 1096 158.988 1096 156.114C1096 153.326 1095.28 151.129 1093.84 149.523C1092.49 147.833 1089.96 146.988 1086.24 146.988H1072.55C1060.89 146.988 1050.32 145.087 1040.86 141.284C1031.48 137.481 1023.75 132.242 1017.66 125.566C1011.66 118.89 1007.06 111.158 1003.85 102.369C1000.63 93.5809 999.029 84.1164 999.029 73.9759C999.029 65.8634 1000.17 58.1735 1002.45 50.9061C1004.73 43.6387 1008.16 36.9628 1012.72 30.8785C1017.37 24.7941 1022.9 19.5548 1029.32 15.1606C1035.83 10.6818 1043.52 7.21713 1052.39 4.76649C1061.35 2.23135 1071.03 0.963782 1081.42 0.963782C1097.73 0.963782 1112.98 3.45667 1127.18 8.44245C1141.38 13.3437 1153.21 20.2309 1162.67 29.1039L1155.32 34.5544C1146.7 26.78 1135.93 20.7801 1123 16.5549C1110.07 12.2452 1096.21 10.0903 1081.42 10.0903C1069.84 10.0903 1059.37 11.7804 1049.99 15.1606C1040.69 18.4563 1033 23.0195 1026.92 28.8503C1020.92 34.6812 1016.27 41.4415 1012.97 49.1315C1009.76 56.8214 1008.16 65.1029 1008.16 73.9759C1008.16 85.891 1010.56 96.6231 1015.38 106.172C1020.2 115.721 1027.55 123.411 1037.44 129.242C1047.32 134.988 1059.03 137.861 1072.55 137.861Z" fill="#0085FF"/>
</svg>
