<svg width="39" height="36" viewBox="0 0 39 36" fill="none" xmlns="http://www.w3.org/2000/svg">
<path d="M26.3988 17.2243L22.3759 18.43" stroke="#0050DD" stroke-width="2" stroke-linecap="round" stroke-linejoin="round"/>
<path d="M27.5122 21.307L23.4893 22.4775" stroke="#0050DD" stroke-width="2" stroke-linecap="round" stroke-linejoin="round"/>
<path fill-rule="evenodd" clip-rule="evenodd" d="M33.7857 26.5H28.9285L25.2857 13.1429L25.265 13.1137C25.0707 13.1307 24.8765 13.1429 24.6785 13.1429C20.9895 13.1429 18 10.1533 18 6.46429C18 5.45279 18.2307 4.49836 18.6338 3.63986L16.7857 1L7.4636 7.52557C5.88017 8.633 5.43817 10.7847 6.45453 12.4276L20.4285 35H37.4285V30.1429C37.4285 28.1308 35.7977 26.5 33.7857 26.5V26.5Z" stroke="#0050DD" stroke-width="2" stroke-linecap="round" stroke-linejoin="round"/>
<path d="M8.28564 33.7857H14.3571" stroke="#0050DD" stroke-width="2" stroke-linecap="round" stroke-linejoin="round"/>
<path d="M4.64282 28.9285H10.7142" stroke="#0050DD" stroke-width="2" stroke-linecap="round" stroke-linejoin="round"/>
<path d="M1 24.0715H7.07143" stroke="#0050DD" stroke-width="2" stroke-linecap="round" stroke-linejoin="round"/>
</svg>
